<svg width="15" height="17" viewBox="0 0 15 17" fill="none" xmlns="http://www.w3.org/2000/svg">
<path d="M9.76205 12.5233C11.2371 12.3486 12.6864 12.0005 14.0798 11.4862C12.8997 10.179 12.2477 8.47981 12.2503 6.71875V6.16458V6.125C12.2503 4.86522 11.7498 3.65704 10.859 2.76624C9.96822 1.87545 8.76003 1.375 7.50026 1.375C6.24048 1.375 5.0323 1.87545 4.1415 2.76624C3.2507 3.65704 2.75026 4.86522 2.75026 6.125V6.71875C2.75264 8.47992 2.10029 10.1791 0.919922 11.4862C2.29188 11.9928 3.73826 12.3451 5.23846 12.5233M9.76205 12.5233C8.25945 12.7015 6.74106 12.7015 5.23846 12.5233M9.76205 12.5233C9.87613 12.8794 9.9045 13.2574 9.84485 13.6266C9.78519 13.9958 9.6392 14.3457 9.41876 14.6477C9.19832 14.9498 8.90966 15.1956 8.57628 15.365C8.2429 15.5345 7.87422 15.6228 7.50026 15.6228C7.12629 15.6228 6.75761 15.5345 6.42423 15.365C6.09085 15.1956 5.80219 14.9498 5.58175 14.6477C5.36131 14.3457 5.21532 13.9958 5.15567 13.6266C5.09601 13.2574 5.12438 12.8794 5.23846 12.5233" stroke="black" stroke-width="1.05632" stroke-linecap="round" stroke-linejoin="round"/>
</svg>
