<svg width="42" height="42" viewBox="0 0 42 42" fill="none" xmlns="http://www.w3.org/2000/svg">
<path d="M9.96875 2V6.78125M32.2812 2V6.78125M2 35.4688V11.5625C2 10.2944 2.50374 9.0783 3.4004 8.18165C4.29705 7.28499 5.51318 6.78125 6.78125 6.78125H35.4688C36.7368 6.78125 37.9529 7.28499 38.8496 8.18165C39.7463 9.0783 40.25 10.2944 40.25 11.5625V35.4688M2 35.4688C2 36.7368 2.50374 37.9529 3.4004 38.8496C4.29705 39.7463 5.51318 40.25 6.78125 40.25H35.4688C36.7368 40.25 37.9529 39.7463 38.8496 38.8496C39.7463 37.9529 40.25 36.7368 40.25 35.4688M2 35.4688V19.5312C2 18.2632 2.50374 17.0471 3.4004 16.1504C4.29705 15.2537 5.51318 14.75 6.78125 14.75H35.4688C36.7368 14.75 37.9529 15.2537 38.8496 16.1504C39.7463 17.0471 40.25 18.2632 40.25 19.5312V35.4688M21.125 22.7188H21.142V22.7358H21.125V22.7188ZM21.125 27.5H21.142V27.517H21.125V27.5ZM21.125 32.2812H21.142V32.2982H21.125V32.2812ZM16.3438 27.5H16.3608V27.517H16.3438V27.5ZM16.3438 32.2812H16.3608V32.2982H16.3438V32.2812ZM11.5625 27.5H11.5795V27.517H11.5625V27.5ZM11.5625 32.2812H11.5795V32.2982H11.5625V32.2812ZM25.9062 22.7188H25.9233V22.7358H25.9062V22.7188ZM25.9062 27.5H25.9233V27.517H25.9062V27.5ZM25.9062 32.2812H25.9233V32.2982H25.9062V32.2812ZM30.6875 22.7188H30.7045V22.7358H30.6875V22.7188ZM30.6875 27.5H30.7045V27.517H30.6875V27.5Z" stroke="#057FA8" stroke-width="3" stroke-linecap="round" stroke-linejoin="round"/>
</svg>
