<svg width="18" height="18" viewBox="0 0 18 18" fill="none" xmlns="http://www.w3.org/2000/svg">
<path d="M4.301 1V2.9806M13.5438 1V2.9806M1 14.8642V4.9612C1 4.43591 1.20867 3.93214 1.5801 3.5607C1.95154 3.18927 2.45531 2.9806 2.9806 2.9806H14.8642C15.3895 2.9806 15.8933 3.18927 16.2647 3.5607C16.6361 3.93214 16.8448 4.43591 16.8448 4.9612V14.8642M1 14.8642C1 15.3895 1.20867 15.8933 1.5801 16.2647C1.95154 16.6361 2.45531 16.8448 2.9806 16.8448H14.8642C15.3895 16.8448 15.8933 16.6361 16.2647 16.2647C16.6361 15.8933 16.8448 15.3895 16.8448 14.8642M1 14.8642V8.2622C1 7.73691 1.20867 7.23314 1.5801 6.8617C1.95154 6.49027 2.45531 6.2816 2.9806 6.2816H14.8642C15.3895 6.2816 15.8933 6.49027 16.2647 6.8617C16.6361 7.23314 16.8448 7.73691 16.8448 8.2622V14.8642M8.9224 9.5826H8.92944V9.58964H8.9224V9.5826ZM8.9224 11.5632H8.92944V11.5702H8.9224V11.5632ZM8.9224 13.5438H8.92944V13.5508H8.9224V13.5438ZM6.9418 11.5632H6.94884V11.5702H6.9418V11.5632ZM6.9418 13.5438H6.94884V13.5508H6.9418V13.5438ZM4.9612 11.5632H4.96824V11.5702H4.9612V11.5632ZM4.9612 13.5438H4.96824V13.5508H4.9612V13.5438ZM10.903 9.5826H10.91V9.58964H10.903V9.5826ZM10.903 11.5632H10.91V11.5702H10.903V11.5632ZM10.903 13.5438H10.91V13.5508H10.903V13.5438ZM12.8836 9.5826H12.8906V9.58964H12.8836V9.5826ZM12.8836 11.5632H12.8906V11.5702H12.8836V11.5632Z" stroke="black" stroke-width="0.704213" stroke-linecap="round" stroke-linejoin="round"/>
</svg>
