<svg width="24" height="24" viewBox="0 0 24 24" fill="none" xmlns="http://www.w3.org/2000/svg">
<path d="M8.56362 12.9646L11.2044 15.6054L15.6057 9.44352M22.6479 12.0843C22.6479 13.4715 22.3747 14.8451 21.8438 16.1267C21.313 17.4083 20.5349 18.5727 19.554 19.5536C18.5731 20.5345 17.4086 21.3126 16.127 21.8434C14.8455 22.3743 13.4719 22.6475 12.0847 22.6475C10.6975 22.6475 9.32391 22.3743 8.04232 21.8434C6.76074 21.3126 5.59626 20.5345 4.61537 19.5536C3.63449 18.5727 2.85641 17.4083 2.32556 16.1267C1.79471 14.8451 1.52148 13.4715 1.52148 12.0843C1.52148 9.28278 2.63439 6.59599 4.61537 4.61501C6.59636 2.63402 9.28315 1.52112 12.0847 1.52112C14.8862 1.52112 17.573 2.63402 19.554 4.61501C21.535 6.59599 22.6479 9.28278 22.6479 12.0843Z" stroke="black" stroke-width="1.05632" stroke-linecap="round" stroke-linejoin="round"/>
</svg>
