<svg width="28" height="34" viewBox="0 0 28 34" fill="none" xmlns="http://www.w3.org/2000/svg">
<path d="M9.00004 5.33333H5.66671C4.78265 5.33333 3.93481 5.68452 3.30968 6.30964C2.68456 6.93477 2.33337 7.78261 2.33337 8.66667V28.6667C2.33337 29.5507 2.68456 30.3986 3.30968 31.0237C3.93481 31.6488 4.78265 32 5.66671 32H22.3334C23.2174 32 24.0653 31.6488 24.6904 31.0237C25.3155 30.3986 25.6667 29.5507 25.6667 28.6667V8.66667C25.6667 7.78261 25.3155 6.93477 24.6904 6.30964C24.0653 5.68452 23.2174 5.33333 22.3334 5.33333H19M9.00004 5.33333C9.00004 6.21739 9.35123 7.06523 9.97635 7.69036C10.6015 8.31548 11.4493 8.66667 12.3334 8.66667H15.6667C16.5508 8.66667 17.3986 8.31548 18.0237 7.69036C18.6489 7.06523 19 6.21739 19 5.33333M9.00004 5.33333C9.00004 4.44928 9.35123 3.60143 9.97635 2.97631C10.6015 2.35119 11.4493 2 12.3334 2H15.6667C16.5508 2 17.3986 2.35119 18.0237 2.97631C18.6489 3.60143 19 4.44928 19 5.33333M14 17H19M14 23.6667H19M9.00004 17H9.01671M9.00004 23.6667H9.01671" stroke="white" stroke-width="3.33333" stroke-linecap="round" stroke-linejoin="round"/>
</svg>
