<svg width="448" height="332" viewBox="0 0 448 332" fill="none" xmlns="http://www.w3.org/2000/svg">
<path d="M46.8409 126.516C46.5002 127.538 46.3867 129.128 46.5002 131.286C46.6138 133.33 46.6705 135.487 46.6705 137.758C46.6705 139.916 46.4434 141.96 45.9892 143.89C45.535 145.707 44.6266 146.842 43.2639 147.297C42.4691 147.524 41.7877 147.751 41.22 147.978C40.7658 148.205 40.0277 148.375 39.0057 148.489C37.9837 148.603 36.5643 148.716 34.7474 148.83C32.9306 148.83 30.4324 148.773 27.2529 148.659C22.5972 148.546 18.5092 148.319 14.9891 147.978C11.5825 147.524 9.5385 146.842 8.85718 145.934C8.51652 145.48 8.17586 143.833 7.8352 140.994C7.49454 138.042 7.21066 134.238 6.98355 129.582C6.75644 124.813 6.52933 119.476 6.30223 113.571C6.18867 107.553 6.07512 101.307 5.96157 94.8349C5.96157 88.2488 5.96157 81.6627 5.96157 75.0766C5.96157 68.3769 6.01834 62.0747 6.1319 56.1699C6.24545 50.1516 6.359 44.6442 6.47256 39.6479C6.69966 34.6515 6.92677 30.6203 7.15388 27.5544C7.38099 25.0562 8.91396 23.069 11.7528 21.5928C14.7052 20.0031 18.3957 18.8675 22.8243 18.1862C27.2529 17.3914 32.1357 16.9939 37.4727 16.9939C42.8097 16.8804 47.9196 16.9939 52.8024 17.3346C57.7988 17.5617 62.2842 17.9591 66.2585 18.5269C70.3465 19.0947 73.2989 19.6056 75.1157 20.0599C79.885 21.4225 83.8594 23.4665 87.0389 26.1918C90.2184 28.917 92.7733 32.2101 94.7037 36.0709C96.6341 39.8182 97.9968 44.0764 98.7917 48.8457C99.5865 53.615 99.9272 58.7249 99.8136 64.1754C99.7001 69.626 99.6433 74.5088 99.6433 78.8239C99.7569 83.1389 99.6433 87.0565 99.3026 90.5767C99.0755 93.9833 98.6213 97.0492 97.94 99.7745C97.3722 102.386 96.3503 104.771 94.8741 106.928C93.1708 109.427 90.8429 111.471 87.8905 113.06C85.0517 114.65 81.9289 115.956 78.5223 116.978C75.1157 118 71.6523 118.852 68.1322 119.533C64.612 120.101 61.3757 120.725 58.4233 121.406C55.4709 121.974 52.916 122.656 50.7585 123.45C48.7145 124.245 47.4086 125.267 46.8409 126.516ZM44.2859 85.9777C44.2859 88.0217 45.3079 89.5547 47.3519 90.5767C49.5094 91.4851 51.894 91.8825 54.5057 91.769C57.1175 91.6554 59.5589 91.0877 61.8299 90.0657C64.101 89.0437 65.3501 87.5107 65.5772 85.4667C65.9179 82.7415 66.2018 80.1865 66.4289 77.8019C66.656 75.4173 66.7695 73.0326 66.7695 70.648C66.8831 68.1498 66.8263 65.5381 66.5992 62.8128C66.4856 60.0875 66.2585 56.9648 65.9179 53.4446C65.6908 51.4007 64.4985 49.8677 62.3409 48.8457C60.1834 47.8237 57.7988 47.3695 55.1871 47.4831C52.6889 47.4831 50.361 47.9941 48.2035 49.016C46.046 49.9245 44.8537 51.2871 44.6266 53.104C44.2859 55.9428 44.0588 59.1223 43.9453 62.6425C43.8317 66.1626 43.8317 69.5692 43.9453 72.8623C44.0588 76.0418 44.1156 78.8806 44.1156 81.3788C44.2291 83.7634 44.2859 85.2964 44.2859 85.9777ZM160.293 20.7412C160.406 29.8255 160.179 38.5123 159.612 46.8017C159.044 55.0912 158.59 62.9264 158.249 70.3073C157.908 77.5748 157.852 84.3312 158.079 90.5767C158.419 96.8221 159.441 102.443 161.145 107.439C161.712 109.143 163.245 110.051 165.743 110.165C168.242 110.278 171.081 110.165 174.26 109.824C177.44 109.37 180.676 108.972 183.969 108.632C187.375 108.291 190.214 108.518 192.485 109.313C192.94 109.54 193.678 111.016 194.7 113.742C195.722 116.353 196.46 119.476 196.914 123.11C197.482 126.743 197.425 130.491 196.744 134.352C196.176 138.099 194.529 141.165 191.804 143.549C191.123 144.231 188.795 144.969 184.82 145.764C180.96 146.445 176.247 147.07 170.683 147.637C165.119 148.092 159.157 148.432 152.798 148.659C146.553 148.886 140.705 148.773 135.254 148.319C129.804 147.751 125.148 146.842 121.287 145.593C117.426 144.231 115.269 142.3 114.815 139.802C114.474 137.872 114.133 134.692 113.793 130.264C113.452 125.835 113.111 120.668 112.771 114.764C112.544 108.745 112.317 102.216 112.089 95.1756C111.976 88.1353 111.919 81.0949 111.919 74.0546C111.919 67.0143 111.976 60.2011 112.089 53.615C112.203 47.0288 112.373 41.1808 112.6 36.0709C112.827 30.8475 113.168 26.646 113.622 23.4665C114.077 20.1734 114.644 18.4133 115.326 18.1862C116.234 17.8456 117.937 17.5049 120.436 17.1642C123.047 16.8236 126 16.5397 129.293 16.3126C132.699 15.9719 136.22 15.8016 139.853 15.8016C143.487 15.8016 146.78 15.9719 149.732 16.3126C152.798 16.5397 155.297 17.0507 157.227 17.8456C159.271 18.5269 160.293 19.4921 160.293 20.7412ZM222.098 21.2522C223.006 20.1166 224.993 19.2082 228.059 18.5269C231.239 17.732 234.929 17.221 239.131 16.9939C243.446 16.6532 247.988 16.4829 252.757 16.4829C257.64 16.4829 262.296 16.5965 266.724 16.8236C271.153 17.0507 275.07 17.3346 278.477 17.6752C281.884 18.0159 284.268 18.3566 285.631 18.6972C287.221 19.1514 288.754 21.1954 290.23 24.8291C291.819 28.4628 293.296 33.1753 294.658 38.9665C296.021 44.6442 297.27 51.1168 298.406 58.3842C299.655 65.5381 300.733 72.9191 301.642 80.5272C302.55 88.1353 303.232 95.6866 303.686 103.181C304.254 110.562 304.594 117.262 304.708 123.28C304.935 129.298 304.878 134.352 304.537 138.44C304.197 142.414 303.572 144.912 302.664 145.934C302.096 146.502 300.393 147.013 297.554 147.467C294.715 147.808 291.536 148.092 288.015 148.319C284.609 148.432 281.202 148.489 277.796 148.489C274.503 148.375 272.004 148.205 270.301 147.978C268.598 147.751 267.178 146.672 266.043 144.742C265.021 142.811 264.112 140.597 263.318 138.099C262.636 135.601 262.068 133.216 261.614 130.945C261.274 128.674 261.046 127.084 260.933 126.176C260.706 125.494 260.024 124.87 258.889 124.302C257.867 123.734 256.675 123.45 255.312 123.45C253.949 123.337 252.643 123.564 251.394 124.132C250.259 124.7 249.521 125.835 249.18 127.538C248.839 129.242 248.556 131.115 248.328 133.159C248.101 135.09 247.817 136.963 247.477 138.78C247.136 140.483 246.682 142.016 246.114 143.379C245.66 144.742 244.922 145.65 243.9 146.104C242.537 146.786 239.982 147.41 236.235 147.978C232.601 148.432 228.74 148.659 224.653 148.659C220.565 148.659 216.817 148.319 213.411 147.637C210.004 146.956 207.903 145.82 207.108 144.231C206.087 141.846 205.519 137.474 205.405 131.115C205.292 124.756 205.519 117.375 206.087 108.972C206.654 100.569 207.506 91.7122 208.641 82.4008C209.777 72.9758 211.083 64.1187 212.559 55.8292C214.035 47.4263 215.568 40.1021 217.158 33.8566C218.861 27.6112 220.508 23.4097 222.098 21.2522ZM244.922 91.0877C244.922 93.1316 246.001 94.6646 248.158 95.6866C250.316 96.595 252.7 97.0492 255.312 97.0492C257.924 96.9357 260.308 96.3679 262.466 95.3459C264.737 94.2104 265.929 92.6206 266.043 90.5767C266.156 87.6243 266.156 84.9558 266.043 82.5711C266.043 80.1865 265.929 77.8019 265.702 75.4173C265.589 73.0326 265.361 70.5344 265.021 67.9227C264.68 65.1974 264.34 62.0747 263.999 58.5545C263.772 56.5106 262.807 54.9776 261.103 53.9556C259.4 52.9336 257.526 52.4794 255.482 52.593C253.552 52.593 251.735 53.104 250.032 54.1259C248.442 55.0344 247.534 56.397 247.306 58.2139C246.966 61.0527 246.625 64.2322 246.284 67.7524C246.057 71.2725 245.83 74.6792 245.603 77.9722C245.376 81.1517 245.206 83.9905 245.092 86.4887C244.979 88.8734 244.922 90.4063 244.922 91.0877ZM357.897 100.796C357.216 100.796 356.762 101.875 356.535 104.033C356.421 106.077 356.365 108.745 356.365 112.038C356.478 115.218 356.592 118.738 356.705 122.599C356.819 126.346 356.819 129.923 356.705 133.33C356.592 136.623 356.308 139.461 355.854 141.846C355.513 144.117 354.832 145.423 353.81 145.764C352.788 146.104 351.198 146.445 349.04 146.786C346.883 147.013 344.441 147.24 341.716 147.467C339.104 147.581 336.379 147.637 333.54 147.637C330.701 147.637 328.09 147.467 325.705 147.126C323.434 146.786 321.56 146.275 320.084 145.593C318.608 144.799 317.87 143.833 317.87 142.698C317.87 141.789 317.813 139.405 317.7 135.544C317.586 131.683 317.472 126.914 317.359 121.236C317.359 115.445 317.302 109.029 317.189 101.989C317.075 94.8349 316.961 87.6243 316.848 80.3568C316.848 73.0894 316.848 65.9923 316.848 59.0655C316.961 52.1388 317.075 45.9501 317.189 40.4995C317.416 34.9354 317.7 30.45 318.04 27.0434C318.494 23.5232 319.062 21.5361 319.743 21.0818C320.993 20.287 323.434 19.6624 327.068 19.2082C330.701 18.6404 334.562 18.2998 338.65 18.1862C342.738 18.0727 346.542 18.2998 350.062 18.8675C353.696 19.3218 356.137 20.2302 357.386 21.5928C358.181 22.5013 359.203 24.4885 360.452 27.5544C361.815 30.6203 363.235 34.2541 364.711 38.4555C366.187 42.657 367.72 47.0856 369.31 51.7413C371.013 56.397 372.603 60.7121 374.079 64.6864C375.555 68.5473 376.974 71.7835 378.337 74.3953C379.7 76.8934 380.835 78.1425 381.744 78.1425C382.652 78.2561 383.163 76.8934 383.277 74.0546C383.39 71.1022 383.277 67.4685 382.936 63.1535C382.595 58.7249 382.141 53.9556 381.573 48.8457C381.006 43.7358 380.551 38.9665 380.211 34.5379C379.87 29.9958 379.7 26.2485 379.7 23.2961C379.7 20.2302 380.154 18.5837 381.062 18.3566C382.312 18.0159 384.696 17.732 388.216 17.5049C391.736 17.2778 395.427 17.2778 399.288 17.5049C403.149 17.732 406.669 18.243 409.848 19.0379C413.028 19.8328 414.958 21.1386 415.64 22.9555C415.98 23.8639 416.321 26.3053 416.661 30.2797C417.002 34.2541 417.286 39.1936 417.513 45.0984C417.74 51.0032 417.967 57.5893 418.194 64.8568C418.422 72.0106 418.592 79.3349 418.705 86.8294C418.819 94.2104 418.819 101.421 418.705 108.461C418.705 115.502 418.592 121.804 418.365 127.368C418.138 132.932 417.797 137.418 417.343 140.824C416.889 144.231 416.321 145.991 415.64 146.104C414.277 146.445 411.722 146.842 407.975 147.297C404.227 147.637 400.253 147.864 396.052 147.978C391.964 147.978 388.103 147.694 384.469 147.126C380.835 146.559 378.394 145.423 377.145 143.72C376.35 142.584 375.498 140.767 374.59 138.269C373.681 135.657 372.659 132.762 371.524 129.582C370.502 126.403 369.423 123.11 368.288 119.703C367.266 116.297 366.13 113.231 364.881 110.505C363.746 107.666 362.553 105.339 361.304 103.522C360.169 101.705 359.033 100.796 357.897 100.796Z" fill="#057FA8"/>
<path d="M56.572 276.277C56.3122 277.322 56.323 278.916 56.6046 281.058C56.8774 283.087 57.1024 285.233 57.2796 287.498C57.448 289.648 57.3811 291.704 57.0789 293.664C56.7679 295.511 55.9509 296.714 54.6278 297.273C53.8531 297.561 53.1916 297.841 52.6433 298.112C52.2082 298.373 51.4856 298.601 50.4756 298.794C49.4656 298.987 48.0594 299.211 46.2569 299.466C44.4456 299.608 41.9506 299.746 38.7719 299.881C34.1216 300.131 30.0284 300.224 26.4924 300.159C23.0607 299.972 20.9698 299.452 20.2197 298.6C19.8446 298.173 19.3765 296.558 18.8153 293.755C18.2452 290.838 17.6653 287.068 17.0756 282.444C16.4769 277.707 15.834 272.404 15.1467 266.535C14.5638 260.544 13.9632 254.326 13.3448 247.882C12.8308 241.316 12.3168 234.75 11.8028 228.184C11.2799 221.505 10.8446 215.218 10.497 209.322C10.1405 203.313 9.82389 197.814 9.54715 192.824C9.38362 187.825 9.29542 183.788 9.28256 180.714C9.314 178.206 10.6872 176.105 13.4022 174.412C16.2215 172.596 19.8121 171.176 24.174 170.151C28.5271 169.013 33.364 168.236 38.6847 167.819C43.9966 167.29 49.0998 167.004 53.9943 166.963C58.9931 166.799 63.4958 166.845 67.5024 167.101C71.6222 167.348 74.6054 167.627 76.4522 167.938C81.3132 168.924 85.435 170.652 88.8175 173.121C92.2 175.59 95.0042 178.673 97.23 182.372C99.447 185.957 101.138 190.096 102.303 194.788C103.467 199.481 104.206 204.549 104.518 209.992C104.83 215.434 105.154 220.307 105.491 224.609C105.941 228.902 106.134 232.816 106.069 236.352C106.108 239.766 105.895 242.858 105.428 245.628C105.066 248.276 104.233 250.734 102.93 253C101.427 255.623 99.2656 257.843 96.4463 259.658C93.7402 261.464 90.7289 263.01 87.4124 264.295C84.096 265.579 80.7096 266.699 77.2534 267.653C73.7882 268.494 70.6106 269.369 67.7204 270.278C64.8213 271.075 62.3273 271.954 60.2384 272.914C58.2627 273.866 57.0406 274.987 56.572 276.277ZM50.861 236.061C51.0205 238.099 52.159 239.547 54.2765 240.407C56.4984 241.144 58.9067 241.354 61.5016 241.037C64.0966 240.72 66.4862 239.963 68.6706 238.767C70.855 237.571 71.9806 235.945 72.0475 233.89C72.1744 231.146 72.258 228.577 72.2983 226.182C72.3386 223.787 72.2657 221.401 72.0796 219.023C71.9979 216.524 71.7374 213.925 71.2983 211.225C70.9724 208.517 70.5023 205.422 69.8879 201.939C69.502 199.919 68.1937 198.484 65.963 197.633C63.7323 196.783 61.3195 196.516 58.7246 196.833C56.234 197.028 53.9531 197.719 51.882 198.906C49.8019 199.98 48.7196 201.432 48.635 203.261C48.5169 206.118 48.5387 209.305 48.7002 212.824C48.8617 216.342 49.1276 219.738 49.4978 223.012C49.8591 226.173 50.1373 228.999 50.3323 231.49C50.6316 233.858 50.8078 235.382 50.861 236.061Z" fill="#057FA8"/>
<path d="M127.458 175.697C128.37 174.564 130.36 173.662 133.428 172.99C136.61 172.204 140.302 171.704 144.504 171.489C148.82 171.161 153.362 171.004 158.132 171.018C163.014 171.032 167.67 171.159 172.098 171.399C176.525 171.64 180.442 171.935 183.848 172.286C187.253 172.636 189.637 172.984 190.999 173.329C192.587 173.787 194.114 175.836 195.58 179.474C197.159 183.112 198.621 187.829 199.967 193.624C201.313 199.306 202.543 205.782 203.657 213.053C204.885 220.21 205.942 227.594 206.829 235.205C207.715 242.816 208.374 250.369 208.806 257.865C209.352 265.248 209.673 271.948 209.769 277.967C209.979 283.986 209.907 289.039 209.554 293.126C209.202 297.099 208.57 299.595 207.659 300.615C207.089 301.181 205.385 301.687 202.544 302.133C199.705 302.465 196.524 302.74 193.004 302.956C189.597 303.06 186.19 303.107 182.783 303.097C179.491 302.974 176.993 302.796 175.29 302.564C173.588 302.332 172.171 301.249 171.041 299.315C170.025 297.382 169.123 295.165 168.336 292.664C167.662 290.164 167.101 287.778 166.653 285.505C166.319 283.233 166.097 281.643 165.986 280.734C165.761 280.052 165.081 279.426 163.948 278.855C162.927 278.284 161.736 277.996 160.373 277.992C159.011 277.875 157.704 278.098 156.454 278.662C155.316 279.227 154.575 280.36 154.229 282.062C153.884 283.765 153.594 285.637 153.361 287.681C153.128 289.611 152.839 291.483 152.493 293.299C152.147 295.001 151.689 296.533 151.117 297.894C150.659 299.255 149.918 300.162 148.895 300.613C147.53 301.29 144.973 301.907 141.224 302.464C137.589 302.908 133.728 303.123 129.64 303.111C125.552 303.099 121.806 302.748 118.401 302.057C114.997 301.365 112.899 300.224 112.109 298.631C111.094 296.244 110.539 291.87 110.444 285.511C110.349 279.152 110.598 271.771 111.19 263.37C111.783 254.969 112.66 246.114 113.823 236.806C114.986 227.385 116.318 218.531 117.818 210.246C119.319 201.848 120.874 194.528 122.482 188.287C124.203 182.047 125.862 177.85 127.458 175.697ZM150.078 245.599C150.072 247.643 151.146 249.179 153.301 250.208C155.455 251.122 157.839 251.584 160.45 251.591C163.062 251.485 165.449 250.925 167.609 249.909C169.884 248.78 171.081 247.194 171.2 245.15C171.322 242.198 171.33 239.53 171.224 237.145C171.231 234.76 171.124 232.375 170.904 229.99C170.797 227.605 170.578 225.106 170.245 222.493C169.912 219.767 169.58 216.643 169.25 213.122C169.029 211.078 168.068 209.542 166.368 208.515C164.668 207.488 162.795 207.028 160.751 207.136C158.821 207.13 157.002 207.636 155.296 208.653C153.704 209.557 152.791 210.917 152.559 212.733C152.21 215.571 151.86 218.749 151.509 222.268C151.271 225.788 151.034 229.194 150.798 232.486C150.561 235.665 150.382 238.503 150.262 241.001C150.141 243.385 150.08 244.918 150.078 245.599Z" fill="#057FA8"/>
<path d="M277.334 173.397C276.712 182.46 275.782 191.1 274.545 199.317C273.308 207.533 272.221 215.305 271.284 222.635C270.356 229.851 269.752 236.58 269.473 242.824C269.307 249.076 269.87 254.761 271.163 259.879C271.591 261.623 273.046 262.652 275.527 262.968C278.007 263.283 280.846 263.4 284.043 263.318C287.249 263.123 290.506 262.989 293.816 262.916C297.239 262.852 300.05 263.308 302.25 264.284C302.684 264.547 303.3 266.079 304.098 268.878C304.905 271.563 305.388 274.736 305.547 278.394C305.818 282.062 305.458 285.792 304.467 289.585C303.597 293.274 301.708 296.197 298.799 298.353C298.064 298.977 295.684 299.524 291.659 299.995C287.755 300.361 283.008 300.602 277.416 300.718C271.833 300.72 265.864 300.577 259.507 300.288C253.264 300.009 247.444 299.422 242.048 298.528C236.662 297.521 232.095 296.238 228.348 294.681C224.61 293.01 222.616 290.911 222.365 288.385C222.182 286.433 222.1 283.236 222.119 278.795C222.138 274.353 222.217 269.176 222.355 263.263C222.616 257.246 222.919 250.72 223.262 243.684C223.719 236.658 224.233 229.636 224.803 222.618C225.373 215.601 225.981 208.815 226.627 202.26C227.274 195.704 227.917 189.889 228.557 184.815C229.206 179.627 229.886 175.467 230.596 172.334C231.316 169.089 232.024 167.381 232.721 167.209C233.654 166.943 235.38 166.742 237.897 166.604C240.528 166.476 243.494 166.432 246.794 166.473C250.217 166.409 253.74 166.524 257.362 166.818C260.983 167.113 264.252 167.549 267.167 168.128C270.204 168.602 272.653 169.314 274.513 170.262C276.495 171.107 277.435 172.152 277.334 173.397Z" fill="#057FA8"/>
<g clip-path="url(#clip0_1562_1570)">
<path d="M366.271 290.595C386.332 290.595 402.595 274.332 402.595 254.27C402.595 234.209 386.332 217.946 366.271 217.946C346.209 217.946 329.946 234.209 329.946 254.27C329.946 274.332 346.209 290.595 366.271 290.595Z" fill="#A353CA" stroke="#A353CA" stroke-width="9.08108" stroke-linecap="round" stroke-linejoin="round"/>
<path d="M351.135 257.297L360.216 266.378L381.405 245.189" fill="#A353CA"/>
<path d="M351.135 257.297L360.216 266.378L381.405 245.189" stroke="white" stroke-width="12.1081" stroke-linecap="round" stroke-linejoin="round"/>
</g>
<defs>
<clipPath id="clip0_1562_1570">
<rect width="96.8649" height="96.8649" fill="white" transform="translate(317.838 205.838)"/>
</clipPath>
</defs>
</svg>
