<svg width="21" height="21" viewBox="0 0 21 21" fill="none" xmlns="http://www.w3.org/2000/svg">
<path d="M9.95156 20.2875V0.7125H11.0316V20.2875H9.95156ZM0.704064 11.04V9.96H20.2791V11.04H0.704064Z" fill="#6ABEA6"/>
<path d="M9.95156 20.2875H8.95156V21.2875H9.95156V20.2875ZM9.95156 0.7125V-0.2875H8.95156V0.7125H9.95156ZM11.0316 0.7125H12.0316V-0.2875H11.0316V0.7125ZM11.0316 20.2875V21.2875H12.0316V20.2875H11.0316ZM0.704064 11.04H-0.295936V12.04H0.704064V11.04ZM0.704064 9.96V8.96H-0.295936V9.96H0.704064ZM20.2791 9.96H21.2791V8.96H20.2791V9.96ZM20.2791 11.04V12.04H21.2791V11.04H20.2791ZM10.9516 20.2875V0.7125H8.95156V20.2875H10.9516ZM9.95156 1.7125H11.0316V-0.2875H9.95156V1.7125ZM10.0316 0.7125V20.2875H12.0316V0.7125H10.0316ZM11.0316 19.2875H9.95156V21.2875H11.0316V19.2875ZM1.70406 11.04V9.96H-0.295936V11.04H1.70406ZM0.704064 10.96H20.2791V8.96H0.704064V10.96ZM19.2791 9.96V11.04H21.2791V9.96H19.2791ZM20.2791 10.04H0.704064V12.04H20.2791V10.04Z" fill="#6ABEA6"/>
</svg>
