<svg width="21" height="22" viewBox="0 0 21 22" fill="none" xmlns="http://www.w3.org/2000/svg">
<path d="M3.23883 17.4489C5.45383 16.131 7.95567 15.4404 10.5 15.4444C13.1389 15.4444 15.6163 16.1722 17.7612 17.4489M13.6667 8.77778C13.6667 9.66183 13.333 10.5097 12.7392 11.1348C12.1453 11.7599 11.3399 12.1111 10.5 12.1111C9.66015 12.1111 8.85469 11.7599 8.26083 11.1348C7.66696 10.5097 7.33333 9.66183 7.33333 8.77778C7.33333 7.89372 7.66696 7.04588 8.26083 6.42075C8.85469 5.79563 9.66015 5.44444 10.5 5.44444C11.3399 5.44444 12.1453 5.79563 12.7392 6.42075C13.333 7.04588 13.6667 7.89372 13.6667 8.77778ZM20 11C20 12.3132 19.7543 13.6136 19.2769 14.8268C18.7994 16.0401 18.0997 17.1425 17.2175 18.0711C16.3354 18.9997 15.2881 19.7362 14.1355 20.2388C12.9829 20.7413 11.7476 21 10.5 21C9.25244 21 8.0171 20.7413 6.86451 20.2388C5.71191 19.7362 4.66464 18.9997 3.78249 18.0711C2.90033 17.1425 2.20056 16.0401 1.72314 14.8268C1.24572 13.6136 1 12.3132 1 11C1 8.34784 2.00089 5.8043 3.78249 3.92893C5.56408 2.05357 7.98044 1 10.5 1C13.0196 1 15.4359 2.05357 17.2175 3.92893C18.9991 5.8043 20 8.34784 20 11Z" stroke="black" stroke-width="1.05632" stroke-linecap="round" stroke-linejoin="round"/>
</svg>
